<svg width="16" height="16" viewBox="0 0 16 16" xmlns="http://www.w3.org/2000/svg"><g fill="#fff"><path d="M10.089.004h-3.954c-.182 0-.33.148-.33.33v3.954c0 .182.148.33.33.33h3.954c.182 0 .33-.148.33-.33v-3.954c0-.182-.148-.33-.33-.33"/><path d="M4.817.004h-3.954c-.182 0-.33.148-.33.33v3.954c0 .182.148.33.33.33h3.954c.182 0 .33-.148.33-.33v-3.954c0-.182-.148-.33-.33-.33" opacity=".8"/><path d="M15.361.004h-3.954c-.182 0-.33.148-.33.33v3.954c0 .182.148.33.33.33h3.954c.182 0 .33-.148.33-.33v-3.954c0-.182-.148-.33-.33-.33" opacity=".8"/><path d="M10.089 5.277h-3.954c-.182 0-.33.148-.33.33v3.954c0 .182.148.33.33.33h3.954c.182 0 .33-.148.33-.33v-3.954c0-.182-.148-.33-.33-.33" opacity=".8"/><path d="M4.817 5.277h-3.954c-.182 0-.33.148-.33.33v3.954c0 .182.148.33.33.33h3.954c.182 0 .33-.148.33-.33v-3.954c0-.182-.148-.33-.33-.33"/><path d="M15.361 5.277h-3.954c-.182 0-.33.148-.33.33v3.954c0 .182.148.33.33.33h3.954c.182 0 .33-.148.33-.33v-3.954c0-.182-.148-.33-.33-.33"/><path d="M10.089 10.549h-3.954c-.182 0-.33.148-.33.33v3.954c0 .182.148.33.33.33h3.954c.182 0 .33-.148.33-.33v-3.954c0-.182-.148-.33-.33-.33"/><path d="M4.817 10.549h-3.954c-.182 0-.33.148-.33.33v3.954c0 .182.148.33.33.33h3.954c.182 0 .33-.148.33-.33v-3.954c0-.182-.148-.33-.33-.33" opacity=".8"/><path d="M15.361 10.549h-3.954c-.182 0-.33.148-.33.33v3.954c0 .182.148.33.33.33h3.954c.182 0 .33-.148.33-.33v-3.954c0-.182-.148-.33-.33-.33" opacity=".8"/></g></svg>