<svg width="16" height="16" viewBox="0 0 16 16" xmlns="http://www.w3.org/2000/svg"><path d="M8.349 10.5c-1.379 0-2.5-1.121-2.5-2.5s1.121-2.5 2.5-2.5 2.5 1.121 2.5 2.5-1.121 2.5-2.5 2.5m7.188-3.75h-1.784c-.125-.494-.284-1.042-.486-1.457l1.27-1.271c.059-.059.092-.138.092-.221 0-.083-.033-.162-.092-.221l-1.768-1.767c-.122-.123-.319-.123-.442 0l-1.271 1.27c-.415-.203-.963-.361-1.456-.486v-1.785c0-.172-.14-.313-.313-.313h-1.875c-.173 0-.313.14-.313.313v1.785c-.494.124-1.042.283-1.457.486l-1.271-1.27c-.123-.123-.32-.123-.442 0l-1.768 1.767c-.122.122-.122.319 0 .442l1.271 1.271c-.201.414-.361.962-.487 1.457h-1.784c-.173 0-.313.14-.313.313v1.875c0 .172.14.313.313.313h1.784c.126.494.286 1.043.487 1.457l-1.271 1.271c-.059.059-.092.138-.092.221 0 .083.033.162.092.221l1.768 1.767c.117.117.325.117.442 0l1.27-1.271c.414.203.963.362 1.458.487v1.784c0 .172.14.313.313.313h1.875c.172 0 .313-.14.313-.313v-1.784c.494-.126 1.042-.285 1.457-.487l1.271 1.27c.123.123.32.123.442 0l1.767-1.767c.123-.122.123-.319 0-.442l-1.27-1.271c.202-.414.361-.962.486-1.457h1.784c.172 0 .313-.14.313-.313v-1.875c0-.172-.14-.313-.313-.313" fill="#fff"/></svg>