<?xml version="1.0" encoding="UTF-8"?>
<!-- Generator: Adobe Illustrator 16.0.5, SVG Export Plug-In . SVG Version: 6.00 Build 0)  -->
<!DOCTYPE svg PUBLIC "-//W3C//DTD SVG 1.1//EN" "http://www.w3.org/Graphics/SVG/1.1/DTD/svg11.dtd">
<svg version="1.1" id="Layer_1" xmlns="http://www.w3.org/2000/svg" xmlns:xlink="http://www.w3.org/1999/xlink" x="0px" y="0px" width="186px" height="45px" viewBox="0 0 186 45" enable-background="new 0 0 186 45" xml:space="preserve">
<g id="Logo_1_">
	<g id="Symbol_2_">
		<linearGradient id="pb_outer_4_" gradientUnits="userSpaceOnUse" x1="147.5283" y1="6.5918" x2="179.5452" y2="38.6086">
			<stop offset="0" style="stop-color:#FFFFFF;stop-opacity:0.9"/>
			<stop offset="0.5" style="stop-color:#FFFFFF;stop-opacity:0.45"/>
			<stop offset="1" style="stop-color:#FFFFFF;stop-opacity:0.9"/>
		</linearGradient>
		<path id="pb_outer_2_" fill="url(#pb_outer_4_)" d="M163.437,0c-12.425,0-22.5,10.076-22.5,22.503    c0,12.425,10.075,22.497,22.5,22.497c12.428,0,22.502-10.072,22.502-22.497C185.939,10.076,175.865,0,163.437,0z M163.437,44.48    c-12.143,0-21.984-9.842-21.984-21.981c0-12.142,9.842-21.979,21.984-21.979c12.143,0,21.987,9.838,21.987,21.979    C185.424,34.639,175.58,44.48,163.437,44.48z M162.883,34.532c-0.37,0-0.592,0.268-0.592,0.715c0,0.44,0.228,0.714,0.594,0.714    c0.172,0.007,0.341,0.009,0.509,0.009c7.61,0,13.521-6.134,13.521-13.469c0-7.43-6.049-13.474-13.479-13.474    c-0.174,0-0.373,0.003-0.548,0.009c-0.375,0-0.598,0.268-0.598,0.716c0,0.446,0.222,0.716,0.594,0.716    c0.154-0.006,0.394-0.009,0.552-0.009c6.643,0,12.045,5.402,12.045,12.042c0,6.552-5.266,12.041-12.1,12.041    C163.214,34.542,163.047,34.539,162.883,34.532z M156.295,11.174c-0.107,0-0.215,0.037-0.321,0.106    c-3.766,2.504-6.014,6.697-6.014,11.221c0,4.517,2.25,8.712,6.016,11.22c0.307,0.205,0.65,0.099,0.893-0.264    c0.248-0.373,0.211-0.72-0.1-0.928c-3.365-2.239-5.377-5.989-5.377-10.028c0-4.015,1.981-7.74,5.305-9.984l0.07-0.047    c0.137-0.091,0.221-0.207,0.25-0.349c0.035-0.173-0.018-0.371-0.152-0.573C156.705,11.307,156.501,11.174,156.295,11.174z     M162.755,38.034c-0.291,0-0.464,0.208-0.464,0.558c0,0.349,0.173,0.56,0.464,0.56c0.247,0.01,0.459,0.018,0.682,0.018    c9.194,0,16.674-7.478,16.674-16.669c0-9.193-7.48-16.671-16.674-16.671c-0.23,0-0.445,0.004-0.68,0.013    c-0.293,0-0.466,0.208-0.466,0.558c0,0.35,0.173,0.56,0.464,0.56c0.213-0.008,0.461-0.014,0.682-0.014    c8.577,0,15.553,6.979,15.553,15.555c0,8.574-6.976,15.549-15.553,15.549C163.21,38.05,162.961,38.041,162.755,38.034z     M156.312,37.574c0.068,0.033,0.134,0.049,0.197,0.049c0.221,0,0.358-0.194,0.436-0.356c0.154-0.326,0.098-0.583-0.157-0.704    c-5.361-2.535-8.904-7.966-8.904-14.062c0-6.065,3.508-11.514,8.885-14.056l0.025-0.013c0.116-0.053,0.168-0.12,0.206-0.224    c0.051-0.132,0.033-0.295-0.049-0.472c-0.108-0.226-0.27-0.35-0.459-0.35c-0.064,0-0.132,0.015-0.199,0.046    c-5.721,2.705-9.53,8.515-9.53,15.067C146.763,29.131,150.642,34.889,156.312,37.574z M156.841,4.792    c0.17-0.065,0.229-0.23,0.155-0.431c-0.072-0.194-0.217-0.283-0.379-0.227c-7.521,2.778-12.773,9.998-12.773,18.364    c0,10.826,8.764,19.591,19.594,19.591c10.829,0,19.596-8.76,19.596-19.591c0-10.831-8.766-19.587-19.596-19.587    c-0.296,0-0.527,0.006-0.85,0.02c-0.186,0-0.296,0.13-0.296,0.349c0,0.214,0.109,0.341,0.291,0.341    c0.307-0.012,0.566-0.019,0.855-0.019c10.443,0,18.899,8.45,18.899,18.897c0,10.44-8.452,18.896-18.899,18.896    c-10.443,0-18.896-8.45-18.896-18.896C144.541,14.492,149.549,7.492,156.841,4.792z M155.471,28.408l0.008,0.013    c0.296,0.391,0.744,0.348,1.142,0.048c0.42-0.318,0.523-0.735,0.272-1.09l-0.014-0.016c-1.051-1.416-1.606-3.094-1.606-4.86    c0-1.768,0.557-3.449,1.608-4.863l0.012-0.016c0.251-0.355,0.15-0.771-0.272-1.087c-0.394-0.301-0.844-0.345-1.142,0.048    c-1.276,1.72-1.958,3.774-1.958,5.918C153.521,24.562,154.154,26.63,155.471,28.408z"/>
		<path id="pb_inner_2_" fill="#FFFFFF" d="M163.416,16.405c-2.332,0.007-4.67,1.187-4.783,2.102    c-0.016,0.114-0.014,0.719-0.008,1.098v18.331c0,0.748,0.564,0.906,1.035,0.906c0.387,0,1.036-0.117,1.036-0.906V19.421    l0.045-0.041c0.674-0.607,1.582-0.915,2.695-0.915c2.225,0,4.034,1.81,4.034,4.036c0,1.066-0.415,2.073-1.168,2.833    c-0.77,0.778-1.81,1.205-2.934,1.205c-0.057,0-0.178-0.005-0.234-0.006c-0.526,0-0.842,0.386-0.842,1.028    c0,0.642,0.316,1.026,0.848,1.026c0.099,0.004,0.263,0.008,0.357,0.008c1.569,0,3.118-0.65,4.252-1.784    c1.155-1.153,1.788-2.685,1.788-4.311c0-1.629-0.633-3.161-1.788-4.313c-1.146-1.149-2.677-1.781-4.311-1.781L163.416,16.405z     M163.144,30.527c-0.533,0-0.853,0.388-0.853,1.037c0,0.651,0.32,1.042,0.859,1.042c0.072,0.002,0.213-0.001,0.281-0.001    c0.002,0,0.002,0,0.002,0c5.567,0,10.096-4.525,10.096-10.086c0-5.568-4.527-10.1-10.092-10.1c-0.857,0-1.721,0.113-2.57,0.334    l-0.172,0.044V3.942c0-0.536-0.385-0.854-1.034-0.854s-1.037,0.318-1.037,0.854v10.352c0,0.511,0.349,0.956,0.888,0.956    c0.102,0,0.207-0.016,0.316-0.046c0.862-0.245,1.639-0.743,3.664-0.743c2.094,0,4.084,0.838,5.602,2.358    c1.51,1.516,2.341,3.532,2.341,5.683c0,2.146-0.832,4.163-2.341,5.678c-1.512,1.514-3.524,2.348-5.665,2.348    C163.359,30.527,163.216,30.53,163.144,30.527z"/>
	</g>
	<path id="Wordmark_2_" fill="#FFFFFF" d="M125.488,28.12c0.783,0.56,2.125,0.905,3.517,0.905c2.906,0,4.641-1.49,4.641-3.911   c0-1.904-1.002-2.879-3.713-3.785c-1.807-0.586-2.564-1.148-2.564-2.027c0-1.123,0.953-1.685,2.344-1.685   c1.248,0,2.443,0.318,3.52,0.976v-1.685c-0.711-0.538-2.199-0.929-3.471-0.929c-2.685,0-4.322,1.247-4.322,3.371   c0,1.637,0.953,2.785,3.248,3.541c2.198,0.709,3.029,1.175,3.029,2.37c0,1.292-1.025,2.101-2.711,2.101   c-1.344,0-2.759-0.39-3.517-0.954V28.12z M114.509,21.329c0.221-2.272,1.439-3.689,3.614-3.689c2.225,0,3.345,1.221,3.419,3.689   H114.509z M123.179,26.481c-0.977,0.491-2.541,0.832-4.055,0.832c-3.029,0-4.566-1.438-4.689-4.348h8.988   c0.025-0.342,0.074-1.025,0.074-1.294c0-3.519-1.783-5.692-5.227-5.692c-3.859,0-5.814,2.835-5.814,6.547   c0,4.177,2.199,6.498,6.424,6.498c1.686,0,3.299-0.294,4.299-0.879V26.481z M107.935,28.73l3.59-12.457h-1.93l-2.588,9.795   l-2.883-9.795h-2.15l-2.857,9.916l-2.564-9.916h-2.1l3.588,12.457h2.029l2.98-9.895l2.857,9.895H107.935z M87.687,27.313   c-2.491,0-3.885-1.904-3.885-4.787c0-2.932,1.394-4.837,3.885-4.837s3.883,1.905,3.883,4.787   C91.569,25.409,90.153,27.313,87.687,27.313z M87.687,29.024c3.956,0,5.936-2.884,5.936-6.522c0-3.666-1.71-6.522-5.936-6.522   c-3.957,0-5.937,2.882-5.937,6.522C81.75,26.166,83.462,29.024,87.687,29.024z M70.666,18.351c0.879-0.465,1.782-0.661,2.954-0.661   c2.688,0,4.226,1.782,4.226,4.421c0,3.348-1.832,5.203-5.031,5.203c-0.879,0-1.49-0.098-2.149-0.341V18.351z M68.711,28.362   c1.196,0.392,2.492,0.662,3.933,0.662c4.519,0,7.253-2.516,7.253-6.938c0-3.812-2.344-6.107-6.082-6.107   c-1.098,0-2.125,0.196-3.15,0.637v-6.229h-1.955V28.362z M56.532,35.057l2.37-6.326l4.957-12.457h-2.149l-3.784,10.185   L54.21,16.273h-2.221l4.958,12.457l-2.394,6.326H56.532z M41.921,21.329c0.219-2.272,1.442-3.689,3.615-3.689   c2.223,0,3.347,1.221,3.42,3.689H41.921z M50.593,26.481c-0.977,0.491-2.54,0.832-4.055,0.832c-3.029,0-4.568-1.438-4.689-4.348   h8.988c0.023-0.342,0.073-1.025,0.073-1.294c0-3.519-1.783-5.692-5.227-5.692c-3.859,0-5.813,2.835-5.813,6.547   c0,4.177,2.198,6.498,6.423,6.498c1.687,0,3.298-0.294,4.299-0.879V26.481z M37.77,28.73v-8.158c0-3.517-2.126-4.593-4.836-4.593   c-1.831,0-4.006,0.465-5.593,1.052V28.73h1.954V18.302c0.806-0.318,2.075-0.562,3.175-0.562c2.271,0,3.345,0.781,3.345,3.517v7.475   H37.77z M25.46,27.021c-0.66,0.194-1.344,0.315-2.199,0.315c-0.88,0-1.539-0.243-1.539-1.855V17.91h3.273v-1.637h-3.273v-3.077   h-1.929v3.077h-2.077v1.637h2.077v7.939c0,2.245,1.171,3.175,3.004,3.175c1.024,0,1.904-0.146,2.663-0.438V27.021z M14.625,13.929   c0.709,0,1.27-0.562,1.27-1.27c0-0.709-0.561-1.295-1.27-1.295c-0.733,0-1.294,0.586-1.294,1.295   C13.33,13.367,13.891,13.929,14.625,13.929z M15.577,16.273h-1.953V28.73h1.953V16.273z M2.015,18.472   c0.83-0.536,1.784-0.782,2.956-0.782c2.686,0,4.225,1.782,4.225,4.421c0,3.348-1.832,5.203-5.056,5.203   c-0.879,0-1.49-0.098-2.125-0.341V18.472z M2.015,35.057v-6.303c0.635,0.172,1.32,0.271,2.027,0.271   c4.446,0,7.205-2.516,7.205-6.938c0-3.785-2.369-6.107-6.081-6.107c-1.759,0-3.589,0.538-5.105,1.808v17.27H2.015z"/>
</g>
</svg>