<?xml version="1.0" encoding="UTF-8"?>
<!-- Generator: Adobe Illustrator 16.0.5, SVG Export Plug-In . SVG Version: 6.00 Build 0)  -->
<!DOCTYPE svg PUBLIC "-//W3C//DTD SVG 1.1//EN" "http://www.w3.org/Graphics/SVG/1.1/DTD/svg11.dtd">
<svg version="1.1" id="Layer_1" xmlns="http://www.w3.org/2000/svg" xmlns:xlink="http://www.w3.org/1999/xlink" x="0px" y="0px" width="186px" height="45px" viewBox="0 0 186 45" enable-background="new 0 0 186 45" xml:space="preserve">
<g id="Logo_2_">
	<g id="Symbol_3_">
		<linearGradient id="pb_outer_4_" gradientUnits="userSpaceOnUse" x1="147.562" y1="6.5781" x2="179.3922" y2="38.4083">
			<stop offset="0.2" style="stop-color:#C869A8"/>
			<stop offset="0.5" style="stop-color:#6E7EBB"/>
			<stop offset="0.8" style="stop-color:#00BCF1"/>
		</linearGradient>
		<path id="pb_outer_3_" fill="url(#pb_outer_4_)" d="M163.476-0.008c-12.432,0-22.515,10.076-22.515,22.503    c0,12.422,10.083,22.496,22.515,22.496c12.438,0,22.517-10.074,22.517-22.496C185.992,10.068,175.914-0.008,163.476-0.008z     M163.476,44.472c-12.145,0-21.993-9.842-21.993-21.98c0-12.141,9.848-21.98,21.993-21.98c12.147,0,21.997,9.839,21.997,21.98    C185.473,34.63,175.623,44.472,163.476,44.472z M162.262,3.273c0-0.235,0.123-0.374,0.318-0.374    c0.309-0.013,0.586-0.02,0.895-0.02c10.839,0,19.628,8.774,19.628,19.612c0,10.832-8.789,19.613-19.628,19.613    c-10.835,0-19.624-8.781-19.624-19.613c0-8.451,5.339-15.642,12.829-18.406c0.182-0.071,0.348,0.025,0.422,0.236    c0.08,0.209,0.02,0.39-0.168,0.461c-7.202,2.66-12.338,9.583-12.338,17.708c0,10.422,8.453,18.869,18.879,18.869    c10.429,0,18.882-8.447,18.882-18.869c0-10.43-8.453-18.875-18.882-18.875c-0.299,0-0.602,0.007-0.901,0.019    C162.377,3.635,162.262,3.495,162.262,3.273z M162.923,34.457c0.156,0.006,0.396,0.008,0.553,0.008    c6.618,0,11.98-5.359,11.98-11.971c0-6.613-5.363-11.973-11.98-11.973c-0.154,0-0.398,0.002-0.553,0.008    c-0.417,0-0.661-0.308-0.661-0.784c0-0.479,0.244-0.785,0.661-0.785c0.174-0.006,0.379-0.009,0.553-0.009    c7.485,0,13.554,6.061,13.554,13.543c0,7.479-6.068,13.541-13.554,13.541c-0.176,0-0.379-0.006-0.553-0.012    c-0.417,0-0.661-0.311-0.661-0.783C162.262,34.761,162.506,34.457,162.923,34.457z M163.476,37.996    c8.57,0,15.514-6.941,15.514-15.502c0-8.567-6.944-15.509-15.514-15.509c-0.217,0-0.484,0.006-0.704,0.013    c-0.318,0-0.51-0.233-0.51-0.604c0-0.373,0.191-0.605,0.51-0.605c0.237-0.008,0.469-0.012,0.704-0.012    c9.241,0,16.73,7.48,16.73,16.718c0,9.23-7.489,16.715-16.73,16.715c-0.234,0-0.471-0.006-0.704-0.016    c-0.32,0-0.51-0.23-0.51-0.605c0-0.371,0.189-0.604,0.51-0.604C162.989,37.99,163.259,37.996,163.476,37.996z M156.87,36.525    c0.289,0.137,0.334,0.436,0.18,0.766c-0.158,0.332-0.407,0.467-0.696,0.33c-5.678-2.67-9.604-8.449-9.604-15.127    c0-6.684,3.92-12.444,9.584-15.122c0.289-0.131,0.565-0.001,0.719,0.326c0.158,0.341,0.086,0.637-0.203,0.77    c-5.256,2.479-8.883,7.827-8.889,14.026C147.958,28.685,151.603,34.039,156.87,36.525z M156.845,32.464    c0.346,0.232,0.383,0.623,0.117,1.021c-0.262,0.396-0.641,0.516-0.987,0.283c-3.788-2.518-6.049-6.736-6.049-11.275    c0-4.541,2.261-8.763,6.049-11.279c0.344-0.235,0.725-0.109,0.989,0.287c0.264,0.396,0.227,0.79-0.119,1.017    c-3.348,2.228-5.35,5.956-5.35,9.975C151.495,26.505,153.497,30.238,156.845,32.464z M155.463,28.455    c-1.257-1.688-1.978-3.748-1.978-5.959c0-2.154,0.686-4.227,1.976-5.965c0.303-0.395,0.782-0.41,1.237-0.059    c0.456,0.34,0.571,0.805,0.272,1.203c-1.042,1.4-1.593,3.066-1.593,4.82c0,1.752,0.555,3.416,1.597,4.816    c0.297,0.396,0.182,0.859-0.274,1.203C156.245,28.863,155.764,28.853,155.463,28.455z"/>
		<path id="pb_inner_3_" fill="#3E53A4" d="M159.911,15.33c-0.841,0.236-1.386-0.379-1.386-1.042V4.073    c0-0.629,0.463-0.993,1.176-0.993s1.171,0.363,1.171,0.993v8.538c0.833-0.217,1.706-0.337,2.605-0.337    c5.656,0,10.239,4.585,10.239,10.238c0,5.65-4.583,10.229-10.239,10.229l-0.219-0.008c-0.624,0-0.997-0.463-0.997-1.18    c0-0.711,0.373-1.174,0.997-1.174c0.07,0,0.145,0.004,0.219,0.004c4.286,0,7.867-3.463,7.867-7.889    c0-4.482-3.661-7.901-7.808-7.901C161.533,14.593,160.757,15.089,159.911,15.33z M167.891,18.08    c-1.176-1.178-2.744-1.82-4.411-1.82c-2.257,0-4.81,1.154-4.946,2.221c-0.021,0.166-0.008,1.117-0.008,1.117v18.193    c0,0.707,0.459,1.041,1.174,1.041c0.67,0,1.173-0.314,1.173-1.041V19.474c0.692-0.623,1.606-0.879,2.605-0.879    c2.15,0,3.897,1.75,3.897,3.898c0,2.145-1.748,3.893-3.897,3.893c-0.029,0-0.201,0.004-0.229,0.004    c-0.618,0-0.987,0.455-0.987,1.168c0,0.703,0.369,1.164,0.987,1.164c0.043,0,0.184,0.01,0.229,0.01    c1.669,0,3.237-0.65,4.413-1.832c1.179-1.18,1.83-2.744,1.83-4.406C169.72,20.83,169.069,19.259,167.891,18.08z"/>
	</g>
	<path id="Wordmark_3_" fill="#4E4E4E" d="M125.504,28.111c0.784,0.561,2.126,0.906,3.52,0.906c2.908,0,4.646-1.49,4.646-3.912   c0-1.902-1.004-2.879-3.717-3.783c-1.808-0.586-2.566-1.148-2.566-2.027c0-1.123,0.956-1.686,2.345-1.686   c1.249,0,2.445,0.318,3.522,0.977V16.9c-0.711-0.537-2.201-0.928-3.471-0.928c-2.689,0-4.327,1.246-4.327,3.371   c0,1.637,0.954,2.785,3.25,3.541c2.199,0.709,3.031,1.174,3.031,2.369c0,1.293-1.026,2.102-2.713,2.102   c-1.347,0-2.761-0.391-3.52-0.953V28.111z M114.516,21.322c0.221-2.273,1.44-3.689,3.616-3.689c2.226,0,3.348,1.221,3.422,3.689   H114.516z M123.191,26.474c-0.977,0.49-2.542,0.832-4.057,0.832c-3.031,0-4.569-1.439-4.692-4.348h8.994   c0.025-0.342,0.074-1.025,0.074-1.295c0-3.518-1.785-5.691-5.23-5.691c-3.862,0-5.818,2.834-5.818,6.547   c0,4.176,2.201,6.498,6.428,6.498c1.687,0,3.301-0.295,4.301-0.879V26.474z M107.938,28.722l3.592-12.457h-1.931l-2.589,9.795   l-2.885-9.795h-2.152l-2.859,9.916l-2.566-9.916h-2.101l3.59,12.457h2.03l2.982-9.895l2.859,9.895H107.938z M87.676,27.306   c-2.493,0-3.887-1.904-3.887-4.787c0-2.932,1.395-4.838,3.887-4.838s3.885,1.906,3.885,4.787   C91.561,25.402,90.144,27.306,87.676,27.306z M87.676,29.017c3.958,0,5.939-2.885,5.939-6.523c0-3.666-1.711-6.521-5.939-6.521   c-3.959,0-5.94,2.881-5.94,6.521C81.735,26.158,83.448,29.017,87.676,29.017z M70.644,18.343c0.88-0.465,1.784-0.662,2.956-0.662   c2.689,0,4.229,1.783,4.229,4.422c0,3.348-1.833,5.203-5.034,5.203c-0.88,0-1.491-0.098-2.151-0.342V18.343z M68.688,28.355   c1.197,0.391,2.494,0.662,3.935,0.662c4.521,0,7.258-2.516,7.258-6.938c0-3.812-2.346-6.107-6.086-6.107   c-1.099,0-2.126,0.195-3.152,0.637v-6.23h-1.956V28.355z M56.5,35.048l2.372-6.326l4.96-12.457h-2.15l-3.787,10.186l-3.717-10.186   h-2.223l4.961,12.457l-2.396,6.326H56.5z M41.881,21.322c0.219-2.273,1.442-3.689,3.618-3.689c2.224,0,3.349,1.221,3.422,3.689   H41.881z M50.558,26.474c-0.978,0.49-2.542,0.832-4.057,0.832c-3.031,0-4.571-1.439-4.692-4.348h8.994   c0.023-0.342,0.073-1.025,0.073-1.295c0-3.518-1.784-5.691-5.23-5.691c-3.862,0-5.817,2.834-5.817,6.547   c0,4.176,2.2,6.498,6.428,6.498c1.688,0,3.3-0.295,4.302-0.879V26.474z M37.726,28.722v-8.158c0-3.516-2.127-4.592-4.839-4.592   c-1.833,0-4.009,0.465-5.597,1.051v11.699h1.956V18.294c0.807-0.318,2.077-0.562,3.177-0.562c2.272,0,3.347,0.781,3.347,3.516   v7.475H37.726z M25.409,27.013c-0.66,0.195-1.345,0.316-2.201,0.316c-0.88,0-1.54-0.244-1.54-1.855v-7.572h3.275v-1.637h-3.275   v-3.077h-1.93v3.077h-2.078v1.637h2.078v7.939c0,2.246,1.172,3.176,3.006,3.176c1.025,0,1.906-0.146,2.665-0.439V27.013z    M14.566,13.921c0.709,0,1.271-0.562,1.271-1.27c0-0.709-0.562-1.295-1.271-1.295c-0.733,0-1.295,0.586-1.295,1.295   C13.271,13.359,13.833,13.921,14.566,13.921z M15.519,16.265h-1.954v12.457h1.954V16.265z M1.948,18.464   c0.83-0.537,1.784-0.783,2.958-0.783c2.688,0,4.228,1.783,4.228,4.422c0,3.348-1.833,5.203-5.059,5.203   c-0.88,0-1.491-0.098-2.126-0.342V18.464z M1.948,35.048v-6.303c0.635,0.172,1.32,0.271,2.028,0.271   c4.449,0,7.209-2.516,7.209-6.938c0-3.785-2.37-6.107-6.084-6.107c-1.76,0-3.592,0.537-5.109,1.807v17.27H1.948z"/>
</g>
</svg>